<svg xmlns="http://www.w3.org/2000/svg" viewBox="0 0 100 100">
  <defs>
    <linearGradient id="grad" x1="0%" y1="0%" x2="100%" y2="100%">
      <stop offset="0%" style="stop-color:#14F195;stop-opacity:1" />
      <stop offset="100%" style="stop-color:#9945FF;stop-opacity:1" />
    </linearGradient>
  </defs>

  <!-- Background with gradient -->
  <rect width="100" height="100" rx="20" fill="url(#grad)"/>

  <!-- Coin icon -->
  <g transform="translate(50, 50)">
    <!-- Main coin circle -->
    <circle cx="0" cy="0" r="25" fill="white" opacity="0.95"/>

    <!-- Dollar sign -->
    <path d="M -2 -15 L -2 -20 L 2 -20 L 2 -15 M -8 -12 Q -8 -18 -2 -18 L 2 -18 Q 8 -18 8 -12 Q 8 -8 4 -6 L -4 -2 Q -8 0 -8 4 Q -8 10 -2 10 L 2 10 Q 8 10 8 4 M -2 12 L -2 15 L 2 15 L 2 12"
          fill="#1a1a24"
          stroke="#1a1a24"
          stroke-width="1.5"
          stroke-linecap="round"
          stroke-linejoin="round"/>

    <!-- Coin shine effect -->
    <ellipse cx="-8" cy="-8" rx="6" ry="4" fill="white" opacity="0.4"/>
  </g>
</svg>
